<?xml version="1.0" encoding="utf-8"?>
<!-- Generator: Adobe Illustrator 27.3.1, SVG Export Plug-In . SVG Version: 6.00 Build 0)  -->
<svg version="1.1" id="Layer_1" xmlns="http://www.w3.org/2000/svg" xmlns:xlink="http://www.w3.org/1999/xlink" x="0px" y="0px"
	 viewBox="0 0 512 512" enable-background="new 0 0 512 512" xml:space="preserve">
<path fill="#0068BA" d="M256,512L64.6,459.6L24.4,0h463.2l-40.2,459.6L256,512z M109.7,421.8L256,462l146.3-40.2l31.7-373H78
	L109.7,421.8z"/>
<path fill="#0068BA" d="M134.1,109.7h243.8L356,369.4l-101.2,32.9l-102.4-25.6l-11-87.8h54.9v43.9l58.5,11l53.6-11V267h-167
	l-3.7-54.9c5-4.6,11.5-7.2,18.3-7.3c84.1,0,152.4,7.3,152.4,7.3v-43.9h-167L134.1,109.7z"/>
</svg>
