<?xml version="1.0" encoding="utf-8"?>
<!-- Generator: Adobe Illustrator 27.3.1, SVG Export Plug-In . SVG Version: 6.00 Build 0)  -->
<svg version="1.1" id="Layer_1" xmlns="http://www.w3.org/2000/svg" xmlns:xlink="http://www.w3.org/1999/xlink" x="0px" y="0px"
	 viewBox="0 0 512 512" enable-background="new 0 0 512 512" xml:space="preserve">
<g>
	<g id="Dribbble-Light-Preview" transform="translate(-420.000000, -7479.000000)">
		<g id="icons" transform="translate(56.000000, 160.000000)">
			<path id="javascript-_x5B__x23_155_x5D_" fill-rule="evenodd" clip-rule="evenodd" fill="#E8D44D" d="M756.4,7790.9
				c-44.7,0-73.5-21.3-87.6-49.1l0,0l39.2-22.7c10.3,16.9,23.7,29.2,47.4,29.2c19.9,0,32.6-10,32.6-23.7c0-20.7-27.6-28.8-47.1-37.1
				c-34.7-14.8-57.8-33.3-57.8-72.5c0-36.1,27.5-63.6,70.5-63.6c30.6,0,52.6,10.6,68.4,38.5l-37.5,24.1
				c-8.2-14.8-17.2-20.6-30.9-20.6c-14.1,0-23,8.9-23,20.6c0,14.4,8.9,20.3,29.6,29.2c43.2,18.5,76,33.1,76,80.8
				C836.1,7767.1,802.1,7790.9,756.4,7790.9L756.4,7790.9z M645.6,7718.3c0,49.8-30.7,76.2-73.3,76.2c-38.5,0-61.6-14.7-72.9-40.3
				H499h-0.2h-0.1l39.1-27.4c7.6,13.4,14.4,22.9,30.8,22.9c15.8,0,25.7-8,25.7-32.1v-168.3h51.2V7718.3z M364,7831h512v-512H364
				V7831z"/>
		</g>
	</g>
</g>
</svg>
