<?xml version="1.0" encoding="utf-8"?>
<!-- Generator: Adobe Illustrator 27.3.1, SVG Export Plug-In . SVG Version: 6.00 Build 0)  -->
<svg version="1.1" id="Layer_1" xmlns="http://www.w3.org/2000/svg" xmlns:xlink="http://www.w3.org/1999/xlink" x="0px" y="0px"
	 viewBox="0 0 512 512" enable-background="new 0 0 512 512" xml:space="preserve">
<path fill="#5A839D" d="M505.9,495.3l-10.6-10.1c-5.3-6.9-10.9-13.1-17-18.7l-0.1-0.1c-6.3-5.7-12.8-11.1-19.5-16.2
	c-5.4-3.7-12.8-8.2-22.3-13.4c-7.8-3.5-13.9-9.6-17.1-17.3l-0.1-0.2l-1-0.5c4.4-0.4,8.5-1.3,12.4-2.4l-0.5,0.1l11.9-3.3
	c4.9-1.6,10.7-2.6,16.6-2.8h0.1c6.2-0.3,12.1-1.3,17.8-2.9l-0.5,0.1c2.7-0.7,5.5-1.4,8.4-2.3c2.9-0.9,5.3-1.6,7.4-2.3v-3.5
	c-2-3-4.5-6.5-7.4-10.4c-2.7-3.7-5.8-7-9.3-9.8l-0.1-0.1c-8.8-7.8-17.9-15.3-27.3-22.6c-8.3-6.5-17.7-13.1-27.5-19.2l-1.4-0.8
	c-5.2-3.4-11.1-6.5-17.3-9.1l-0.7-0.3c-6.3-2.5-12.4-5.3-18.5-8.4c-2-1-4.4-1.9-6.9-2.5l-0.2,0c-2.5-0.5-4.5-1.8-6.1-3.5l0,0
	c-2.9-3.8-5.4-8.2-7.4-12.8l-0.2-0.4c-2-4.7-4.2-9.3-6.6-13.6c-5.1-9.8-10-19.8-14.7-29.9c-4.7-10.1-9.3-20.3-13.6-30.4
	c-3-6.8-5.8-13.5-8.4-20.3c-2.8-7.4-6-13.8-9.7-19.7l0.3,0.5c-9.1-15.4-18.1-28.6-27.9-41.1l0.6,0.8c-9.7-12.2-19.8-23.2-30.6-33.3
	l-0.2-0.1c-10.7-10-22.2-19.6-34.2-28.4l-1-0.7c-12.5-9.1-26.2-18.1-41.1-26.9c-6-3.5-12.9-6.4-20.2-8.2l-0.5-0.1L130.2,42L117,41
	c-4.4-0.3-8.8-0.5-13.2-0.5c-3.1-1.6-5.8-3.6-8.1-5.8c-2.3-2.2-4.8-4.3-7.4-6.2l-0.2-0.1C75.4,20.9,60.7,14.1,45.3,8.8l-1.8-0.5
	c-4-2.4-8.9-3.8-14.1-3.8c-3.7,0-7.2,0.7-10.5,2l0.2-0.1C11.2,9.6,5.1,16,2.5,24l-0.1,0.2C0.9,27.8,0,32,0,36.4
	c0,7.7,2.7,14.8,7.3,20.3l0-0.1c7.6,10.1,13.4,18.1,17.5,23.9c3,4.1,6.2,8.3,9.4,12.7c3,3.9,5.6,8.4,7.7,13.2l0.2,0.4
	c1.2,2.5,2.2,5.5,3,8.5l0.1,0.3c0.7,2.9,1.5,6,2.5,9.4c3,7.8,5.9,15.7,8.6,23.9c3,8.9,6.2,16.5,10,23.6l-0.4-0.8
	c2,3.7,4.1,7.4,6.1,10.9c2,3.5,4.2,7,6.6,10.4c1.4,2.1,3.1,3.8,5.1,5.1l0.1,0c2.1,1.5,3.4,3.9,3.5,6.6v0c-2.4,3.5-4,7.7-4.5,12.3
	l0,0.1c-0.7,5.3-1.8,10-3.2,14.6l0.2-0.6c-4.7,14-7.4,30.1-7.4,46.8c0,5.4,0.3,10.7,0.8,16l-0.1-0.6c1.3,20.1,7.3,38.5,17,54.5
	l-0.3-0.5c4.1,6.2,8.6,11.6,13.4,16.5c3.5,3.9,8.6,6.4,14.3,6.4c3.2,0,6.2-0.8,8.8-2.2l-0.1,0c7.3-2.6,12.6-9.3,12.9-17.3v0
	c1-9.9,2.5-18.8,4.6-27.5l-0.3,1.4c0.5-1.3,0.8-2.8,0.8-4.4c0-0.3,0-0.6,0-0.9v0c-0.2-1.5,0.8-3,2.8-4.3v1c2,4.7,4.1,9.5,6.3,14.2
	c2.2,4.7,4.5,9.5,6.8,14.2c6.2,9.4,12.7,17.6,20,25.2l-0.1-0.1c7.2,7.8,15.1,14.8,23.6,21l0.5,0.3c4.4,3.4,8.3,7.1,11.9,11.1
	l0.1,0.1c3.3,3.9,7.3,7.1,11.7,9.5l0.2,0.1V411h1c-0.8-1.8-2.1-3.3-3.8-4.3l0,0c-1.7-0.9-3.1-1.8-4.4-2.9l0.1,0.1
	c-3-3-6.2-6.4-9.4-10.1c-3.2-3.7-6.2-7.3-8.9-10.6c-7.1-9.8-13.9-20.1-20.3-30.8c-6.4-10.7-12.5-21.6-18.3-32.6
	c-2.7-5.4-5.3-11-7.9-16.7c-2.5-5.7-5-11.3-7.4-16.7c-1-2.1-1.7-4.5-2-7v-0.1c-0.1-2.4-1.5-4.5-3.5-5.6l0,0c-2.5,4.3-5.3,8-8.6,11.4
	l0,0c-3.3,3.5-6.1,7.6-8,12.2l-0.1,0.3c-3,7.2-5.1,15.5-6.1,24.2l0,0.4c-1,9-2,18.2-3,27.6l-1,0.5l-0.5,0.5
	c-5.5-1.1-9.9-4.6-12.4-9.3l0-0.1c-2.5-4.9-4.8-9.7-6.8-14.5c-5.2-13.4-8.4-28.8-8.9-44.9v-0.2c-0.2-2.6-0.3-5.6-0.3-8.6
	c0-14,2.2-27.4,6.3-40l-0.3,0.9c1-3.7,3.2-10,6.6-18.8s4.1-14.9,2-18.3c-1-3.5-3-6.4-5.6-8.6l0,0c-2.6-2.2-4.9-4.5-7-7l-0.1-0.1
	c-2.4-3.4-4.6-7-6.8-10.9c-2.2-3.9-4.1-7.7-5.8-11.4c-3.5-8-7-18-9.9-28.4l-0.5-1.9c-3.3-11.8-7-21.9-11.4-31.5l0.5,1.3
	c-2.3-5.3-5-9.9-8.2-14l0.1,0.2c-3.4-4.6-6.5-8.9-9.1-12.9c-3.4-4.4-6.8-8.6-10.1-12.7c-3.4-4.1-6.5-8.8-8.9-13.8l-0.2-0.4
	c-1-2-1.9-4.4-2.5-6.9l0-0.2c-0.2-0.7-0.4-1.6-0.4-2.5c0-1.7,0.5-3.3,1.4-4.7l0,0c0.2-1.2,0.8-2.2,1.5-3c0.8-0.7,1.9-1.3,3-1.5h0
	c1.8-1.2,3.9-1.8,6.3-1.8c1.8,0,3.5,0.4,4.9,1.1l-0.1,0c4.6,1.3,8.3,2.6,11.9,4.1l-0.8-0.3c6.4,2.7,12.3,5.3,17.8,7.9
	c6.2,3,11.6,6.1,16.6,9.6l-0.4-0.3c2.7,1.7,5.4,3.5,8.1,5.6c2.7,2,5.6,4.1,8.6,6.1h7.1c5.4,0,11.2,0.3,17.2,0.8
	c6.1,0.5,11.8,1.6,17.2,3.4l-0.5-0.1c10.1,3,18.7,6.5,27,10.8l-0.9-0.4c8.3,4.2,16.1,8.7,23.6,13.4c12.3,7.7,23,15.6,33.1,24.2
	l-0.4-0.3c10.5,9,20,18.2,28.9,27.9l0.2,0.3c8.7,9.5,17,19.9,24.7,30.7l0.6,1c7,9.9,14.1,21.3,20.4,33.2l0.9,1.8
	c1.7,3.2,3.4,7.2,4.9,11.2l0.2,0.7c1.4,3.9,2.9,7.9,4.5,11.9c3.7,8.5,7.7,17,11.9,25.6c4.2,8.6,8.2,17,11.9,25.1l11.2,24.3
	c3.9,8.5,8.3,15.8,13.4,22.6l-0.2-0.3c4.3,4.5,9.9,7.7,16.3,8.8l0.2,0c7.7,1.9,14.2,4.1,20.5,6.7l-1-0.4c3,1.4,6.9,2.8,10.8,4.1
	l0.8,0.2c4.4,1.4,8.3,3.2,11.8,5.4l-0.2-0.1c6.9,3.8,12.7,7.6,18.2,11.7l-0.4-0.3c5.7,4.2,11.5,8.2,17.2,11.9c2.7,2,7.3,5,13.6,8.9
	c6.4,3.9,9.8,7.5,10.1,10.9c-2.4-0.1-5.2-0.1-8-0.1c-10.3,0-20.5,0.7-30.4,2l1.2-0.1c-11.2,1.5-21.4,4.3-31,8.2l0.8-0.3
	c-2.4,1-5.2,2-8.1,2.7l-0.4,0.1c-3,0.4-5.3,2.8-5.6,5.8v0c1.3,1.6,2.3,3.4,3,5.5l0,0.1c0.7,2.1,1.6,4,2.6,5.7l-0.1-0.1
	c2.5,4.4,5.2,8.2,8.2,11.8l-0.1-0.1c3,3.6,6.3,6.8,10,9.5l0.1,0.1c3.4,2.7,7,5.5,10.6,8.4c3.4,2.6,7.2,5.2,11.2,7.6l0.5,0.3
	c6,3.6,12.9,7.1,20.1,10l1,0.3c7.8,3.1,14.6,6.8,20.8,11.1l-0.3-0.2c4.1,2.4,8.1,5,12.2,7.9c4,2.9,7.9,5.7,11.7,8.4
	c1.5,1.5,2.9,3.2,4,5l0.1,0.1c1.9,2.2,4.5,3.7,7.5,4h0.1v-1c-1.8-1.4-3.2-3.4-3.9-5.6l0-0.1c-0.5-2.1-1.3-4-2.3-5.7L505.9,495.3
	L505.9,495.3z M116.5,92.7c-2.7,0-5.2,0.1-7.6,0.3c-2.4,0.2-4.7,0.6-6.8,1.3l0.2-0.1v0.5h1c1.4,2,3.1,4.3,5.1,6.8
	c2.1,2.5,3.9,5,5.6,7.4l8.1,16.7l1-0.5c2.4-1.7,4.2-4,5.3-6.7l0-0.1c1.1-2.9,1.7-6.3,1.7-9.8c0-0.4,0-0.8,0-1.1v0.1
	c-0.9-0.9-1.7-2-2.3-3.2l0-0.1l-1.7-3.8c-1.1-1.8-2.7-3.1-4.5-4l-0.1,0C119.6,95.3,118,94.1,116.5,92.7z"/>
</svg>
