<?xml version="1.0" encoding="utf-8"?>
<!-- Generator: Adobe Illustrator 27.3.1, SVG Export Plug-In . SVG Version: 6.00 Build 0)  -->
<svg version="1.1" id="Layer_1" xmlns="http://www.w3.org/2000/svg" xmlns:xlink="http://www.w3.org/1999/xlink" x="0px" y="0px"
	 viewBox="0 0 512 512" enable-background="new 0 0 512 512" xml:space="preserve">
<g>
	<path fill-rule="evenodd" clip-rule="evenodd" fill="#8E75FF" d="M340.4,348.2V182.1c0-5.9-4.8-10.7-10.7-10.7H163.7V-0.1H501
		c5.9,0,10.7,4.8,10.7,10.7c0,0,0,0,0,0v337.6H340.4z"/>
	<path opacity="0.405" fill-rule="evenodd" clip-rule="evenodd" fill="#8E75FF" enable-background="new    " d="M163.7-0.1v171.5
		H5.4c-3,0-5.4-2.4-5.4-5.4c0-1.4,0.6-2.8,1.6-3.8L163.7-0.1z M340.4,506.8V348.2h171.3L349.5,510.6c-2.1,2.1-5.5,2.1-7.6,0
		C341,509.6,340.4,508.2,340.4,506.8z M163.7,171.4H335c3,0,5.4,2.4,5.4,5.4v171.5H174.5c-5.9,0-10.7-4.8-10.7-10.7L163.7,171.4z"/>
</g>
</svg>
